<?xml version="1.0" standalone="no"?>
<!DOCTYPE svg PUBLIC "-//W3C//DTD SVG 20010904//EN"
 "http://www.w3.org/TR/2001/REC-SVG-20010904/DTD/svg10.dtd">
<svg version="1.0" xmlns="http://www.w3.org/2000/svg"
 width="1024.000000pt" height="1024.000000pt" viewBox="0 0 1024.000000 1024.000000"
 preserveAspectRatio="xMidYMid meet">
<metadata>
Created by potrace 1.14, written by Peter Selinger 2001-2017
</metadata>
<g transform="translate(0.000000,1024.000000) scale(0.100000,-0.100000)"
fill="#000000" stroke="none">
<path d="M0 5120 l0 -5120 5120 0 5120 0 0 5120 0 5120 -5120 0 -5120 0 0
-5120z m5672 2765 c780 -2289 1720 -5040 1752 -5129 87 -243 221 -382 409
-422 44 -9 154 -13 380 -14 l318 0 -3 -152 -3 -153 -1465 0 -1465 0 -3 153 -3
152 351 0 c332 0 353 1 416 22 83 27 155 89 180 154 34 89 20 143 -227 857
l-224 647 -1095 -2 -1095 -3 -32 -90 c-17 -49 -77 -220 -133 -380 -120 -340
-169 -521 -177 -655 -14 -238 74 -423 240 -501 94 -43 145 -49 453 -49 l284 0
0 -155 0 -155 -1295 0 -1295 0 0 155 0 155 223 0 c264 0 322 10 456 76 175 87
317 257 422 508 39 93 333 920 1571 4416 276 778 506 1421 511 1428 7 9 42 12
131 10 l121 -3 297 -870z"/>
<path d="M4502 5782 c-260 -780 -472 -1422 -472 -1425 0 -4 435 -7 966 -7 916
0 966 1 959 18 -7 18 -900 2615 -942 2742 -14 41 -29 78 -32 83 -4 4 -219
-631 -479 -1411z"/>
</g>
</svg>
